<svg xmlns="http://www.w3.org/2000/svg"
     xmlns:xlink="http://www.w3.org/1999/xlink"
     width="22px" height="23px">
    <path fill-rule="evenodd" fill="rgb(255, 255, 255)"
          d="M11.039,0.852 C8.184,0.844 5.439,1.960 3.387,3.962 L3.387,0.851 C3.387,0.381 3.009,-0.000 2.543,-0.000 C2.076,-0.000 1.699,0.381 1.699,0.851 L1.699,5.960 C1.699,6.327 1.931,6.653 2.276,6.768 L7.338,8.471 C7.781,8.620 8.259,8.378 8.406,7.932 C8.554,7.485 8.314,7.002 7.872,6.854 L4.134,5.598 C7.587,1.804 13.434,1.553 17.194,5.037 C20.954,8.522 21.203,14.422 17.750,18.217 C14.297,22.011 8.450,22.263 4.690,18.778 C2.385,16.642 1.308,13.474 1.827,10.359 C1.909,9.896 1.603,9.454 1.144,9.371 C0.686,9.289 0.248,9.597 0.166,10.060 C0.165,10.065 0.164,10.070 0.163,10.075 C0.062,10.685 0.011,11.302 0.011,11.921 C0.018,18.031 4.925,22.983 10.980,22.990 C17.038,23.007 21.962,18.064 21.978,11.951 C21.995,5.837 17.097,0.868 11.039,0.852 Z"/>
</svg>
