<svg xmlns="http://www.w3.org/2000/svg"
     xmlns:xlink="http://www.w3.org/1999/xlink"
     width="26px" height="26px">
    <path fill-rule="evenodd" fill="rgb(255, 255, 255)"
          d="M25.207,23.353 L11.179,23.353 L11.179,25.207 C11.179,25.645 10.825,26.000 10.386,26.000 L0.792,26.000 C0.355,26.000 -0.000,25.645 -0.000,25.207 L-0.000,15.613 C-0.000,15.175 0.355,14.821 0.792,14.821 L2.647,14.821 L2.647,0.793 C2.647,0.355 3.002,-0.000 3.440,-0.000 L25.207,-0.000 C25.645,-0.000 26.000,0.355 26.000,0.793 L26.000,22.560 C26.000,22.998 25.645,23.353 25.207,23.353 ZM1.585,16.406 L1.585,24.414 L9.593,24.414 L9.593,17.527 L5.907,21.213 C5.597,21.524 5.095,21.523 4.785,21.213 C4.477,20.904 4.477,20.402 4.785,20.092 L8.471,16.406 L1.585,16.406 ZM24.414,1.586 L4.233,1.586 L4.233,14.821 L10.057,14.821 L16.240,8.639 L13.068,8.639 C12.630,8.639 12.275,8.284 12.275,7.846 C12.275,7.408 12.630,7.053 13.068,7.053 L18.154,7.053 C18.577,7.053 18.946,7.394 18.946,7.846 L18.946,12.932 C18.946,13.370 18.592,13.725 18.154,13.725 C17.715,13.725 17.361,13.370 17.361,12.932 L17.361,9.760 L11.179,15.942 L11.179,21.767 L24.414,21.767 L24.414,1.586 Z"/>
</svg>
