<svg xmlns="http://www.w3.org/2000/svg"
     xmlns:xlink="http://www.w3.org/1999/xlink"
     width="25px" height="25px">
    <path fill-rule="evenodd" fill="rgb(255, 255, 255)"
          d="M24.825,12.108 L21.573,8.849 C21.362,8.637 21.018,8.636 20.806,8.848 C20.704,8.950 20.647,9.089 20.647,9.234 L20.647,10.863 L14.143,10.863 L14.143,4.346 L15.769,4.346 C16.068,4.346 16.311,4.103 16.312,3.803 C16.312,3.659 16.255,3.520 16.153,3.418 L12.901,0.159 C12.689,-0.053 12.346,-0.053 12.134,0.159 L8.882,3.418 C8.671,3.630 8.670,3.974 8.882,4.186 C8.983,4.288 9.121,4.345 9.265,4.346 L10.891,4.346 L10.891,10.863 L4.387,10.863 L4.387,9.234 C4.387,8.934 4.145,8.690 3.846,8.689 C3.701,8.689 3.563,8.747 3.461,8.849 L0.209,12.108 C-0.002,12.320 -0.002,12.664 0.209,12.876 L3.461,16.134 C3.673,16.347 4.015,16.347 4.228,16.135 C4.330,16.033 4.387,15.895 4.387,15.751 L4.387,14.121 L10.891,14.121 L10.891,20.639 L9.265,20.639 C8.966,20.638 8.722,20.881 8.722,21.181 C8.722,21.326 8.779,21.464 8.881,21.566 L12.133,24.825 C12.345,25.037 12.688,25.037 12.900,24.825 L16.152,21.566 C16.364,21.355 16.364,21.011 16.153,20.798 C16.051,20.696 15.913,20.639 15.769,20.639 L14.143,20.639 L14.143,14.121 L20.647,14.121 L20.647,15.751 C20.646,16.051 20.889,16.294 21.188,16.295 C21.332,16.295 21.471,16.238 21.573,16.135 L24.825,12.877 C25.037,12.665 25.037,12.321 24.826,12.109 C24.826,12.108 24.825,12.108 24.825,12.108 Z"/>
</svg>
