<svg xmlns="http://www.w3.org/2000/svg"
     xmlns:xlink="http://www.w3.org/1999/xlink"
     width="35.5px" height="21.5px">
    <path fill-rule="evenodd" stroke="rgb(42, 39, 39)" stroke-width="1px" stroke-linecap="butt" stroke-linejoin="miter"
          fill="rgb(255, 255, 255)"
          d="M24.500,19.500 C29.470,19.500 33.500,15.471 33.500,10.500 C33.500,5.529 29.470,1.500 24.500,1.500 C19.529,1.500 15.500,5.529 15.500,10.500 C15.500,15.471 19.529,19.500 24.500,19.500 Z"/>
    <path fill-rule="evenodd" stroke="rgb(42, 39, 39)" stroke-width="1px" stroke-linecap="butt" stroke-linejoin="miter"
          fill="rgb(255, 255, 255)"
          d="M13.500,18.500 C17.366,18.500 20.500,15.366 20.500,11.500 C20.500,7.634 17.366,4.500 13.500,4.500 C9.634,4.500 6.500,7.634 6.500,11.500 C6.500,15.366 9.634,18.500 13.500,18.500 Z"/>
    <path fill-rule="evenodd" stroke="rgb(42, 39, 39)" stroke-width="1px" stroke-linecap="butt" stroke-linejoin="miter"
          fill="rgb(255, 255, 255)"
          d="M6.500,18.500 C9.261,18.500 11.500,16.261 11.500,13.500 C11.500,10.738 9.261,8.500 6.500,8.500 C3.738,8.500 1.500,10.738 1.500,13.500 C1.500,16.261 3.738,18.500 6.500,18.500 Z"/>
</svg>
