<svg xmlns="http://www.w3.org/2000/svg"
     xmlns:xlink="http://www.w3.org/1999/xlink"
     width="29px" height="29px">
    <path fill-rule="evenodd" fill="rgb(255, 255, 255)"
          d="M26.788,9.745 C26.878,9.261 26.923,8.770 26.924,8.277 C26.919,3.702 23.206,-0.002 18.631,0.004 C15.149,0.008 12.040,2.190 10.853,5.464 C8.729,4.618 6.319,5.655 5.473,7.780 C5.400,7.964 5.341,8.153 5.294,8.345 C1.901,8.853 -0.439,12.015 0.069,15.409 C0.524,18.452 3.139,20.703 6.216,20.702 L11.393,20.702 C11.964,20.702 12.428,20.239 12.428,19.667 C12.428,19.095 11.964,18.631 11.393,18.631 L6.216,18.631 C3.929,18.631 2.074,16.777 2.074,14.490 C2.074,12.202 3.929,10.348 6.216,10.348 C6.788,10.348 7.251,9.884 7.251,9.312 C7.253,8.169 8.182,7.243 9.325,7.245 C9.866,7.246 10.386,7.458 10.772,7.837 C11.179,8.238 11.835,8.234 12.236,7.826 C12.386,7.673 12.486,7.477 12.521,7.265 C13.083,3.884 16.279,1.599 19.661,2.161 C23.041,2.723 25.327,5.919 24.765,9.301 C24.732,9.502 24.688,9.702 24.635,9.900 C24.516,10.332 24.688,10.791 25.063,11.038 C26.969,12.303 27.488,14.873 26.224,16.780 C25.458,17.933 24.167,18.628 22.783,18.631 L19.676,18.631 C19.104,18.631 18.641,19.095 18.641,19.667 C18.641,20.239 19.104,20.702 19.676,20.702 L22.783,20.702 C26.214,20.699 28.992,17.915 28.989,14.484 C28.988,12.658 28.182,10.924 26.788,9.745 Z"/>
    <path fill-rule="evenodd" fill="rgb(255, 255, 255)"
          d="M21.444,14.793 L16.267,9.616 C16.170,9.519 16.055,9.443 15.929,9.391 C15.675,9.287 15.391,9.287 15.138,9.391 C15.011,9.443 14.897,9.519 14.800,9.616 L9.623,14.793 C9.226,15.204 9.238,15.860 9.649,16.257 C10.050,16.645 10.686,16.645 11.087,16.257 L14.499,12.847 L14.499,27.950 C14.499,28.522 14.963,28.986 15.535,28.986 C16.106,28.986 16.570,28.522 16.570,27.950 L16.570,12.848 L19.979,16.257 C20.391,16.654 21.046,16.643 21.444,16.232 C21.831,15.831 21.831,15.194 21.444,14.793 Z"/>
</svg>
