<svg xmlns="http://www.w3.org/2000/svg"
     xmlns:xlink="http://www.w3.org/1999/xlink"
     width="20px" height="17px">
    <path fill-rule="evenodd" fill="rgb(255, 255, 255)"
          d="M5.351,17.000 C6.437,17.000 7.476,16.778 8.139,16.111 C9.286,14.958 9.282,13.096 8.139,11.948 C7.033,10.835 5.102,10.835 3.996,11.948 C2.473,13.478 1.241,14.652 -0.000,15.827 L0.905,16.149 C1.256,16.274 3.383,17.000 5.351,17.000 L5.351,17.000 Z"/>
    <path fill-rule="evenodd" fill="rgb(255, 255, 255)"
          d="M9.921,12.655 L11.625,10.942 L9.139,8.444 L7.417,10.175 C8.001,10.373 8.539,10.684 8.968,11.115 C9.407,11.556 9.719,12.084 9.921,12.655 Z"/>
    <path fill-rule="evenodd" fill="rgb(255, 255, 255)"
          d="M9.970,7.615 L17.508,0.039 L19.994,2.536 L12.455,10.113 L9.970,7.615 Z"/>
</svg>
