<svg xmlns="http://www.w3.org/2000/svg"
     xmlns:xlink="http://www.w3.org/1999/xlink"
     width="26px" height="24px">
    <path fill-rule="evenodd" fill="rgb(255, 255, 255)"
          d="M25.492,13.826 C25.772,13.826 26.000,14.058 26.000,14.344 L26.000,18.481 C26.000,18.618 25.946,18.752 25.851,18.848 C25.757,18.944 25.626,19.000 25.492,19.000 L0.508,19.000 C0.374,19.000 0.243,18.944 0.149,18.848 C0.054,18.752 -0.000,18.618 -0.000,18.481 L-0.000,5.518 C-0.000,5.382 0.054,5.248 0.149,5.152 C0.243,5.055 0.374,5.000 0.508,5.000 L2.539,5.000 C2.672,5.000 2.804,5.055 2.898,5.152 C2.992,5.248 3.047,5.382 3.047,5.518 L3.047,6.215 C3.329,6.085 3.663,5.985 4.027,5.985 C4.906,5.985 5.348,6.359 5.671,6.632 C5.724,6.677 6.488,7.318 7.004,7.318 C7.519,7.318 8.258,6.697 8.301,6.661 C8.598,6.408 9.094,5.985 9.981,5.985 C10.859,5.985 11.283,6.344 11.624,6.632 C11.677,6.677 12.459,7.318 13.000,7.318 C13.515,7.318 14.289,6.669 14.347,6.621 C14.683,6.337 15.101,5.985 15.976,5.985 C16.851,5.985 17.249,6.321 17.601,6.617 C17.660,6.666 18.437,7.318 18.953,7.318 C19.468,7.318 20.213,6.692 20.256,6.656 C20.573,6.389 21.052,5.985 21.951,5.985 C22.323,5.985 22.666,6.088 22.953,6.220 L22.953,5.518 C22.953,5.382 23.007,5.248 23.102,5.152 C23.196,5.055 23.327,5.000 23.461,5.000 L25.492,5.000 C25.626,5.000 25.757,5.055 25.851,5.152 C25.946,5.248 26.000,5.382 26.000,5.518 L26.000,9.678 C26.000,9.964 25.772,10.196 25.492,10.196 C25.212,10.196 24.984,9.964 24.984,9.678 L24.984,6.037 L23.969,6.037 L23.969,16.407 C23.969,16.557 23.905,16.699 23.795,16.798 C23.685,16.896 23.538,16.941 23.392,16.921 L2.470,14.018 C2.348,14.000 2.237,13.939 2.156,13.845 C2.076,13.750 2.031,13.629 2.031,13.504 L2.031,6.037 L1.015,6.037 L1.015,17.963 L24.984,17.963 L24.984,14.344 C24.984,14.058 25.212,13.826 25.492,13.826 ZM3.047,13.051 L22.953,15.814 L22.953,7.415 C22.748,7.260 22.366,7.022 21.951,7.022 C21.417,7.022 21.168,7.233 20.904,7.456 C20.854,7.497 19.836,8.355 18.953,8.355 C18.071,8.355 17.018,7.470 16.955,7.417 C16.663,7.171 16.486,7.022 15.976,7.022 C15.466,7.022 15.288,7.172 14.993,7.420 C14.932,7.472 13.882,8.355 13.000,8.355 C12.100,8.355 11.034,7.480 10.976,7.430 C10.696,7.193 10.493,7.022 9.981,7.022 C9.462,7.022 9.203,7.243 8.952,7.457 C8.903,7.498 7.887,8.355 7.004,8.355 C6.121,8.355 5.082,7.480 5.023,7.431 C4.742,7.194 4.540,7.022 4.027,7.022 C3.621,7.022 3.247,7.259 3.047,7.412 L3.047,13.051 Z"/>
    <path fill-rule="evenodd" fill="rgb(255, 255, 255)"
          d="M25.492,12.529 C25.772,12.529 26.000,12.297 26.000,12.011 C26.000,11.724 25.772,11.492 25.492,11.492 C25.211,11.492 24.984,11.724 24.984,12.011 C24.984,12.297 25.211,12.529 25.492,12.529 Z"/>
    <path fill-rule="evenodd" fill="rgb(255, 255, 255)"
          d="M16.601,10.137 C16.701,10.238 16.831,10.289 16.961,10.289 C17.091,10.289 17.221,10.238 17.320,10.137 C17.518,9.935 17.518,9.606 17.320,9.404 L16.304,8.367 C16.106,8.164 15.784,8.164 15.586,8.367 L14.570,9.404 C14.372,9.606 14.372,9.934 14.570,10.137 C14.769,10.340 15.090,10.339 15.288,10.137 L15.437,9.985 L15.437,11.941 L15.288,11.789 C15.090,11.586 14.769,11.586 14.570,11.789 C14.372,11.991 14.372,12.320 14.570,12.522 L15.586,13.559 C15.685,13.660 15.815,13.711 15.945,13.711 C16.075,13.711 16.205,13.660 16.304,13.559 L17.320,12.522 C17.518,12.320 17.518,11.991 17.320,11.789 C17.121,11.586 16.800,11.586 16.601,11.789 L16.453,11.941 L16.453,9.985 L16.601,10.137 Z"/>
</svg>
