<svg xmlns="http://www.w3.org/2000/svg"
     xmlns:xlink="http://www.w3.org/1999/xlink"
     width="21px" height="24px">
    <path fill-rule="evenodd" fill="rgb(255, 255, 255)"
          d="M11.320,9.018 L4.060,1.192 C3.823,0.936 3.438,0.936 3.200,1.193 C2.963,1.450 2.964,1.867 3.202,2.123 L10.029,9.483 L3.202,16.844 C2.963,17.100 2.962,17.516 3.200,17.774 C3.319,17.902 3.475,17.967 3.631,17.967 C3.786,17.967 3.942,17.903 4.060,17.775 L11.320,9.949 C11.435,9.826 11.498,9.658 11.498,9.483 C11.498,9.309 11.434,9.141 11.320,9.018 Z"/>
    <path fill-rule="evenodd" fill="rgb(255, 255, 255)"
          d="M16.798,9.018 L9.539,1.192 C9.301,0.936 8.916,0.936 8.679,1.193 C8.441,1.450 8.442,1.867 8.680,2.123 L15.507,9.483 L8.680,16.844 C8.441,17.100 8.441,17.516 8.678,17.774 C8.797,17.902 8.953,17.967 9.109,17.967 C9.264,17.967 9.420,17.903 9.539,17.775 L16.798,9.949 C16.913,9.826 16.977,9.658 16.977,9.483 C16.977,9.309 16.912,9.141 16.798,9.018 Z"/>
</svg>
