<svg xmlns="http://www.w3.org/2000/svg"
     xmlns:xlink="http://www.w3.org/1999/xlink"
     width="22px" height="22px">
    <path fill-rule="evenodd" fill="rgb(255, 255, 255)"
          d="M17.414,7.914 L11.086,7.914 L11.086,1.586 C11.086,1.262 10.823,1.000 10.500,1.000 C10.176,1.000 9.914,1.262 9.914,1.586 L9.914,7.914 L3.586,7.914 C3.262,7.914 3.000,8.176 3.000,8.500 C3.000,8.824 3.262,9.086 3.586,9.086 L9.914,9.086 L9.914,15.414 C9.914,15.738 10.176,16.000 10.500,16.000 C10.823,16.000 11.086,15.738 11.086,15.414 L11.086,9.086 L17.414,9.086 C17.738,9.086 18.000,8.824 18.000,8.500 C18.000,8.176 17.738,7.914 17.414,7.914 Z"/>
</svg>
